<svg width="288" height="97" viewBox="0 0 288 97" fill="none" xmlns="http://www.w3.org/2000/svg">
<path d="M174.543 56.5376C171.367 67.3371 161.202 75.0267 148.994 75.0267C133.045 75.0267 121.608 62.3953 121.608 47.8588C121.608 33.9518 132.408 20.8234 148.923 20.8234C163.959 20.8921 172.498 31.9755 174.545 39.5941H163.464C161.838 36.0014 157.183 30.1389 148.852 30.0656C138.689 30.0656 132.126 38.6072 132.126 47.8588C132.126 57.3873 138.971 65.7845 148.925 65.7845C158.241 65.7845 162.477 58.4381 163.467 56.5376H174.543Z" fill="#333333"/>
<path d="M188.24 57.7327C188.661 63.9454 194.168 67.4056 199.463 67.337C203.976 67.337 207.015 65.2874 208.781 62.1112H218.307C216.473 66.4187 213.72 69.6588 210.475 71.848C207.228 74.113 203.418 75.2443 199.394 75.2443C187.463 75.2443 178.922 65.5714 178.922 54.7719C178.922 43.7642 187.537 34.0889 199.25 34.0889C205.039 34.0889 210.12 36.2782 213.72 40.02C218.451 44.8884 220.215 50.9638 219.436 57.7327H188.24ZM210.331 50.6751C209.978 47.0066 206.099 41.8566 199.321 41.9252C192.474 41.9252 188.734 46.8623 188.386 50.6751H210.331Z" fill="#333333"/>
<path d="M226.429 35.296H235.179V40.3726C236.873 36.9077 240.052 34.1647 245.91 34.0889V43.4092H245.486C238.994 43.4092 235.674 46.441 235.674 53.1483V74.0372H226.429V35.296Z" fill="#333333"/>
<path d="M256.215 57.7327C256.643 63.9454 262.141 67.4056 267.435 67.337C271.953 67.337 274.988 65.2874 276.753 62.1112H286.279C284.45 66.4187 281.693 69.6588 278.441 71.848C275.201 74.113 271.39 75.2443 267.362 75.2443C255.436 75.2443 246.894 65.5714 246.894 54.7719C246.894 43.7642 255.507 34.0889 267.222 34.0889C273.009 34.0889 278.088 36.2782 281.693 40.02C286.419 44.8884 288.189 50.9638 287.408 57.7327H256.215ZM278.301 50.6751C277.955 47.0066 274.074 41.8566 267.293 41.9252C260.449 41.9252 256.714 46.8623 256.357 50.6751H278.301Z" fill="#333333"/>
<path d="M45.967 96.0315C23.9065 96.0315 6.76887 85.4308 1.24014 68.3666L0 64.549L3.62588 62.8142C4.00929 62.6272 13.5212 57.8488 12.9296 48.4528C12.3047 38.5337 4.25775 33.8783 3.91458 33.6866L0.378689 31.6891L1.90521 27.9189C9.14035 10.4523 25.6153 0.0314941 45.9693 0.0314941C61.9662 0.0314941 75.9868 6.28207 84.4266 17.1786L86.5567 19.9335L69.7386 42.5572L65.9849 38.9337C65.9115 38.8651 57.9167 31.3199 48.6366 31.2773C39.6951 31.2347 36.171 34.5978 36.0243 34.7422L29.3997 28.3899C30.0056 27.7437 35.6834 22.0091 48.6769 22.1061C56.9558 22.144 64.1081 26.0941 68.328 29.0833L74.9241 20.2104C68.0842 13.1811 57.7321 9.20737 45.9717 9.20737C30.7843 9.20737 18.3115 16.2342 11.9213 28.1816C15.7838 31.4169 21.4522 37.8237 22.0912 47.8753C22.7752 58.7387 15.8146 65.5691 11.287 68.8305C16.6454 80.0323 29.5749 86.8485 45.9741 86.8485C57.3321 86.8485 68.9575 82.4345 76.1359 75.6112L68.6357 66.227C64.643 69.0506 57.8196 72.719 48.897 73.1829C36.2278 73.8338 28.737 68.0139 28.4246 67.7654L34.1214 60.5753C34.2965 60.7031 39.385 64.4946 48.4189 64.0189C59.1119 63.4698 65.9707 56.6133 66.0346 56.5399L69.6628 52.8502L72.9076 56.876L88.0666 75.855L85.7425 78.7211C77.2151 89.2366 61.6088 96.0315 45.967 96.0315Z" fill="white"/>
<path d="M45.967 96.0315C23.9065 96.0315 6.76887 85.4308 1.24014 68.3666L0 64.549L3.62588 62.8142C4.00929 62.6272 13.5212 57.8488 12.9296 48.4528C12.3047 38.5337 4.25775 33.8783 3.91458 33.6866L0.378689 31.6891L1.90521 27.9189C9.14035 10.4523 25.6153 0.0314941 45.9693 0.0314941C61.9662 0.0314941 75.9868 6.28207 84.4266 17.1786L86.5567 19.9335L69.7386 42.5572L65.9849 38.9337C65.9115 38.8651 57.9167 31.3199 48.6366 31.2773C39.6951 31.2347 36.171 34.5978 36.0243 34.7422L29.3997 28.3899C30.0056 27.7437 35.6834 22.0091 48.6769 22.1061C56.9558 22.144 64.1081 26.0941 68.328 29.0833L74.9241 20.2104C68.0842 13.1811 57.7321 9.20737 45.9717 9.20737C30.7843 9.20737 18.3115 16.2342 11.9213 28.1816C15.7838 31.4169 21.4522 37.8237 22.0912 47.8753C22.7752 58.7387 15.8146 65.5691 11.287 68.8305C16.6454 80.0323 29.5749 86.8485 45.9741 86.8485C57.3321 86.8485 68.9575 82.4345 76.1359 75.6112L68.6357 66.227C64.643 69.0506 57.8196 72.719 48.897 73.1829C36.2278 73.8338 28.737 68.0139 28.4246 67.7654L34.1214 60.5753C34.2965 60.7031 39.385 64.4946 48.4189 64.0189C59.1119 63.4698 65.9707 56.6133 66.0346 56.5399L69.6628 52.8502L72.9076 56.876L88.0666 75.855L85.7425 78.7211C77.2151 89.2366 61.6088 96.0315 45.967 96.0315Z" fill="url(#paint0_linear_1172_552)"/>
<defs>
<linearGradient id="paint0_linear_1172_552" x1="84.2488" y1="15.181" x2="9.8111" y2="80.3482" gradientUnits="userSpaceOnUse">
<stop offset="0.0733" stop-color="#F46881"/>
<stop offset="0.083" stop-color="#F36682"/>
<stop offset="0.2596" stop-color="#E74596"/>
<stop offset="0.407" stop-color="#E031A2"/>
<stop offset="0.5065" stop-color="#DD2AA6"/>
<stop offset="0.8882" stop-color="#5210E2"/>
</linearGradient>
</defs>
</svg>
