<svg width="16" height="17" viewBox="0 0 16 17" fill="none" xmlns="http://www.w3.org/2000/svg">
    <path d="M8.32935 16.1152C4.57189 16.1152 1.65291 14.3484 0.711228 11.5044L0.5 10.8681L1.11758 10.579C1.18288 10.5478 2.80301 9.75138 2.70223 8.18539C2.59581 6.53221 1.2252 5.75632 1.16675 5.72436L0.5645 5.39144L0.824507 4.76307C2.05684 1.85197 4.86294 0.115173 8.32975 0.115173C11.0544 0.115173 13.4425 1.15694 14.88 2.97302L15.2428 3.43217L12.3783 7.20279L11.7389 6.59888C11.7264 6.58744 10.3647 5.32991 8.78406 5.32281C7.26109 5.31571 6.66084 5.87623 6.63585 5.90029L5.50752 4.84157C5.61072 4.73388 6.5778 3.77811 8.79092 3.79428C10.201 3.80059 11.4192 4.45894 12.138 4.95714L13.2615 3.47832C12.0965 2.30678 10.3332 1.64449 8.33015 1.64449C5.74335 1.64449 3.61892 2.81563 2.5305 4.80686C3.18839 5.34608 4.15386 6.41388 4.2627 8.08914C4.3792 9.8997 3.19363 11.0381 2.42247 11.5817C3.33513 13.4486 5.53736 14.5847 8.33056 14.5847C10.2651 14.5847 12.2452 13.849 13.4679 12.7118L12.1904 11.1478C11.5103 11.6184 10.3482 12.2298 8.82841 12.3071C6.67052 12.4156 5.39465 11.4456 5.34144 11.4042L6.31174 10.2058C6.34157 10.2271 7.20828 10.859 8.74698 10.7797C10.5683 10.6882 11.7365 9.54548 11.7474 9.53325L12.3654 8.91829L12.918 9.58926L15.5 12.7524L15.1041 13.2301C13.6517 14.9827 10.9936 16.1152 8.32935 16.1152Z"
          fill="url(#paint0_linear_1172_559)"/>
    <defs>
        <linearGradient id="paint0_linear_1172_559" x1="14.8497" y1="2.6401" x2="2.41065" y2="13.7691"
                        gradientUnits="userSpaceOnUse">
            <stop offset="0.0733" stop-color="#F46881"/>
            <stop offset="0.083" stop-color="#F36682"/>
            <stop offset="0.2596" stop-color="#E74596"/>
            <stop offset="0.407" stop-color="#E031A2"/>
            <stop offset="0.5065" stop-color="#DD2AA6"/>
            <stop offset="0.8882" stop-color="#5210E2"/>
        </linearGradient>
    </defs>
</svg>
