<?xml version="1.0" encoding="UTF-8" standalone="no" ?>
<!DOCTYPE svg PUBLIC "-//W3C//DTD SVG 1.1//EN" "http://www.w3.org/Graphics/SVG/1.1/DTD/svg11.dtd">
<svg xmlns="http://www.w3.org/2000/svg" xmlns:xlink="http://www.w3.org/1999/xlink" version="1.1" width="1080" height="1080" viewBox="0 0 1080 1080" xml:space="preserve">
<desc>Created with Fabric.js 5.2.4</desc>
<defs>
</defs>
<g transform="matrix(1 0 0 1 540 540)" id="7832bffc-4dbd-4c19-a971-48eef632214c"  >
<rect style="stroke: none; stroke-width: 1; stroke-dasharray: none; stroke-linecap: butt; stroke-dashoffset: 0; stroke-linejoin: miter; stroke-miterlimit: 4; fill: rgb(255,255,255); fill-rule: nonzero; opacity: 1; visibility: hidden;" vector-effect="non-scaling-stroke"  x="-540" y="-540" rx="0" ry="0" width="1080" height="1080" />
</g>
<g transform="matrix(1 0 0 1 540 540)" id="8c29dbe6-8468-405f-815e-4a952d324c75"  >
</g>
<g transform="matrix(4.02 0 0 4.02 558.44 540)"  >
<g style="" vector-effect="non-scaling-stroke"   >
		<g transform="matrix(0.13 0 0 -0.13 0 0)"  >
<path style="stroke: none; stroke-width: 1; stroke-dasharray: none; stroke-linecap: butt; stroke-dashoffset: 0; stroke-linejoin: miter; stroke-miterlimit: 4; fill: rgb(0,0,0); fill-rule: nonzero; opacity: 1;" vector-effect="non-scaling-stroke"  transform=" translate(-1100, -1080)" d="M 1000 1960 L 1000 1920 L 960 1920 L 920 1920 L 920 1880 L 920 1840 L 880 1840 L 840 1840 L 840 1800 L 840 1760 L 800 1760 L 760 1760 L 760 1720 L 760 1680 L 720 1680 L 680 1680 L 680 1640 L 680 1600 L 640 1600 L 600 1600 L 600 1080 L 600 560 L 640 560 L 680 560 L 680 520 L 680 480 L 720 480 L 760 480 L 760 440 L 760 400 L 800 400 L 840 400 L 840 360 L 840 320 L 880 320 L 920 320 L 920 280 L 920 240 L 960 240 L 1000 240 L 1000 200 L 1000 160 L 1100 160 L 1200 160 L 1200 200 L 1200 240 L 1240 240 L 1280 240 L 1280 280 L 1280 320 L 1320 320 L 1360 320 L 1360 360 L 1360 400 L 1400 400 L 1440 400 L 1440 440 L 1440 480 L 1480 480 L 1520 480 L 1520 520 L 1520 560 L 1560 560 L 1600 560 L 1600 1080 L 1600 1600 L 1560 1600 L 1520 1600 L 1520 1640 L 1520 1680 L 1480 1680 L 1440 1680 L 1440 1720 L 1440 1760 L 1400 1760 L 1360 1760 L 1360 1800 L 1360 1840 L 1320 1840 L 1280 1840 L 1280 1880 L 1280 1920 L 1240 1920 L 1200 1920 L 1200 1960 L 1200 2000 L 1100 2000 L 1000 2000 L 1000 1960 z M 1200 1880 L 1200 1840 L 1240 1840 L 1280 1840 L 1280 1800 L 1280 1760 L 1320 1760 L 1360 1760 L 1360 1720 L 1360 1680 L 1400 1680 L 1440 1680 L 1440 1640 L 1440 1600 L 1480 1600 L 1520 1600 L 1520 1080 L 1520 560 L 1480 560 L 1440 560 L 1440 520 C 1440 487 1437 480 1420 480 C 1406 480 1400 487 1400 501 C 1400 520 1395 522 1360 518 L 1320 514 L 1320 558 L 1320 602 L 1280 598 L 1240 594 L 1240 638 L 1240 682 L 1200 678 L 1160 674 L 1160 718 L 1160 762 L 1120 758 C 1084 755 1080 757 1080 777 C 1080 797 1075 800 1040 800 L 1000 800 L 1000 840 C 1000 873 1003 880 1020 880 C 1039 880 1040 887 1040 1060 L 1040 1240 L 1000 1240 L 960 1240 L 960 1280 L 960 1320 L 920 1320 L 880 1320 L 880 1360 L 880 1400 L 840 1400 L 800 1400 L 800 1440 L 800 1480 L 760 1480 C 738 1480 720 1477 720 1472 C 720 1468 735 1465 752 1465 C 771 1465 785 1460 786 1453 C 787 1446 788 1426 789 1409 C 789 1392 794 1381 800 1385 C 814 1394 852 1381 845 1369 C 841 1364 844 1360 849 1360 C 855 1360 860 1353 860 1344 C 860 1319 888 1298 917 1302 C 932 1304 945 1300 947 1293 C 950 1286 947 1280 941 1280 C 920 1280 961 1232 988 1225 C 1008 1220 1011 1217 999 1209 C 988 1202 990 1200 1008 1200 C 1030 1200 1030 1199 1030 1046 C 1030 901 1029 892 1010 887 C 994 883 990 873 990 843 C 990 815 987 809 980 820 C 975 828 970 830 970 824 C 970 818 960 815 946 817 C 933 820 919 817 916 811 C 911 804 924 800 954 800 L 1000 800 L 1000 760 L 1000 720 L 960 720 L 920 720 L 922 678 L 923 635 L 928 675 C 932 711 934 713 940 690 C 947 667 948 667 949 687 C 950 703 957 710 978 712 C 1001 714 1006 721 1010 750 C 1013 770 1020 785 1028 784 C 1034 783 1048 782 1058 781 C 1073 780 1073 778 1060 770 C 1047 761 1047 760 1060 760 C 1073 760 1073 758 1060 749 C 1047 740 1048 739 1063 744 C 1072 747 1080 745 1080 740 C 1080 734 1075 730 1068 730 C 1062 730 1060 727 1064 723 C 1068 718 1077 722 1083 730 C 1090 738 1107 746 1123 746 C 1146 748 1150 744 1150 719 C 1150 703 1144 690 1138 689 C 1129 689 1129 687 1139 683 C 1150 678 1150 676 1139 668 C 1128 661 1130 660 1144 664 C 1158 669 1161 666 1156 653 C 1151 637 1152 637 1162 650 C 1169 658 1188 666 1204 667 C 1224 668 1229 665 1221 657 C 1215 651 1210 641 1210 635 C 1210 630 1215 632 1220 640 C 1228 652 1230 651 1230 633 C 1230 620 1224 610 1218 609 C 1209 609 1209 607 1219 603 C 1230 598 1230 596 1219 588 C 1208 581 1210 580 1224 584 C 1238 589 1241 586 1236 573 C 1230 556 1231 556 1244 573 C 1251 582 1260 590 1263 590 C 1267 590 1267 582 1263 573 C 1257 557 1259 557 1278 574 C 1290 585 1303 590 1307 587 C 1310 583 1309 580 1303 580 C 1297 580 1290 571 1287 560 C 1284 549 1286 540 1290 540 C 1295 540 1301 548 1303 558 C 1307 571 1308 569 1309 553 C 1309 540 1304 530 1298 529 C 1289 529 1289 527 1299 523 C 1310 518 1310 516 1299 508 C 1288 501 1290 500 1304 504 C 1318 509 1321 506 1316 493 C 1311 477 1312 477 1322 490 C 1329 498 1348 506 1365 507 C 1391 508 1392 507 1375 497 C 1364 491 1351 485 1346 485 C 1333 485 1326 460 1339 460 C 1345 460 1350 448 1350 434 C 1350 412 1346 409 1328 413 C 1293 423 1270 404 1270 365 C 1270 333 1267 330 1241 330 C 1189 330 1179 321 1186 284 L 1192 250 L 1148 250 C 1109 250 1103 253 1093 278 L 1082 305 L 1081 278 C 1080 258 1075 250 1061 250 C 1047 250 1044 256 1048 275 C 1051 295 1049 299 1036 294 C 1027 291 1020 292 1020 297 C 1020 310 982 350 970 350 C 964 350 960 343 960 335 C 960 327 951 320 940 320 C 923 320 920 327 920 360 L 920 400 L 880 400 L 840 400 L 840 440 L 840 480 L 800 480 L 760 480 L 760 520 L 760 560 L 720 560 L 680 560 L 680 1001 L 680 1441 L 703 1438 C 715 1436 724 1429 722 1422 C 721 1416 726 1410 733 1410 C 741 1410 747 1417 747 1425 C 747 1433 741 1440 734 1440 C 717 1440 714 1457 718 1533 C 721 1591 724 1600 741 1600 C 757 1600 760 1607 760 1640 L 760 1680 L 800 1680 L 840 1680 L 840 1720 L 840 1760 L 880 1760 L 920 1760 L 920 1800 L 920 1840 L 960 1840 L 1000 1840 L 1000 1880 L 1000 1920 L 1100 1920 L 1200 1920 L 1200 1880 z M 700 1540 C 704 1537 704 1515 701 1490 L 694 1445 L 687 1500 C 679 1561 679 1612 687 1570 C 690 1556 695 1543 700 1540 z M 1021 247 C 1013 239 1010 240 1010 251 C 1010 271 1023 285 1028 270 C 1031 263 1027 253 1021 247 z" stroke-linecap="round" />
</g>
		<g transform="matrix(0.13 0 0 -0.13 -44.15 -42.93)"  >
<path style="stroke: none; stroke-width: 1; stroke-dasharray: none; stroke-linecap: butt; stroke-dashoffset: 0; stroke-linejoin: miter; stroke-miterlimit: 4; fill: rgb(0,0,0); fill-rule: nonzero; opacity: 1;" vector-effect="non-scaling-stroke"  transform=" translate(-768.86, -1402)" d="M 761 1424 C 762 1414 766 1394 770 1380 C 777 1359 778 1361 776 1392 C 775 1413 770 1433 767 1437 C 763 1440 760 1435 761 1424 z" stroke-linecap="round" />
</g>
		<g transform="matrix(0.13 0 0 -0.13 -41.97 -29.36)"  >
<path style="stroke: none; stroke-width: 1; stroke-dasharray: none; stroke-linecap: butt; stroke-dashoffset: 0; stroke-linejoin: miter; stroke-miterlimit: 4; fill: rgb(0,0,0); fill-rule: nonzero; opacity: 1;" vector-effect="non-scaling-stroke"  transform=" translate(-785.25, -1300.18)" d="M 782 1300 C 782 1286 784 1281 787 1288 C 789 1294 789 1306 787 1313 C 784 1319 782 1314 782 1300 z" stroke-linecap="round" />
</g>
		<g transform="matrix(0.13 0 0 -0.13 -44.69 -28.78)"  >
<path style="stroke: none; stroke-width: 1; stroke-dasharray: none; stroke-linecap: butt; stroke-dashoffset: 0; stroke-linejoin: miter; stroke-miterlimit: 4; fill: rgb(0,0,0); fill-rule: nonzero; opacity: 1;" vector-effect="non-scaling-stroke"  transform=" translate(-764.81, -1295.86)" d="M 761 1294 C 761 1283 764 1280 767 1288 C 770 1295 769 1304 766 1307 C 763 1311 760 1305 761 1294 z" stroke-linecap="round" />
</g>
		<g transform="matrix(0.13 0 0 -0.13 -34.03 -24.78)"  >
<path style="stroke: none; stroke-width: 1; stroke-dasharray: none; stroke-linecap: butt; stroke-dashoffset: 0; stroke-linejoin: miter; stroke-miterlimit: 4; fill: rgb(0,0,0); fill-rule: nonzero; opacity: 1;" vector-effect="non-scaling-stroke"  transform=" translate(-844.81, -1265.86)" d="M 841 1264 C 841 1253 844 1250 847 1258 C 850 1265 849 1274 846 1277 C 843 1281 840 1275 841 1264 z" stroke-linecap="round" />
</g>
		<g transform="matrix(0.13 0 0 -0.13 -31.3 -8.02)"  >
<path style="stroke: none; stroke-width: 1; stroke-dasharray: none; stroke-linecap: butt; stroke-dashoffset: 0; stroke-linejoin: miter; stroke-miterlimit: 4; fill: rgb(0,0,0); fill-rule: nonzero; opacity: 1;" vector-effect="non-scaling-stroke"  transform=" translate(-865.25, -1140.18)" d="M 862 1140 C 862 1126 864 1121 867 1128 C 869 1134 869 1146 867 1153 C 864 1159 862 1154 862 1140 z" stroke-linecap="round" />
</g>
		<g transform="matrix(0.13 0 0 -0.13 -34.03 -7.45)"  >
<path style="stroke: none; stroke-width: 1; stroke-dasharray: none; stroke-linecap: butt; stroke-dashoffset: 0; stroke-linejoin: miter; stroke-miterlimit: 4; fill: rgb(0,0,0); fill-rule: nonzero; opacity: 1;" vector-effect="non-scaling-stroke"  transform=" translate(-844.81, -1135.86)" d="M 841 1134 C 841 1123 844 1120 847 1128 C 850 1135 849 1144 846 1147 C 843 1151 840 1145 841 1134 z" stroke-linecap="round" />
</g>
		<g transform="matrix(0.13 0 0 -0.13 4 62.43)"  >
<path style="stroke: none; stroke-width: 1; stroke-dasharray: none; stroke-linecap: butt; stroke-dashoffset: 0; stroke-linejoin: miter; stroke-miterlimit: 4; fill: rgb(0,0,0); fill-rule: nonzero; opacity: 1;" vector-effect="non-scaling-stroke"  transform=" translate(-1130, -611.8)" d="M 1120 609 C 1120 604 1125 602 1130 605 C 1136 608 1140 613 1140 616 C 1140 618 1136 620 1130 620 C 1125 620 1120 615 1120 609 z" stroke-linecap="round" />
</g>
		<g transform="matrix(0.13 0 0 -0.13 9.57 68)"  >
<path style="stroke: none; stroke-width: 1; stroke-dasharray: none; stroke-linecap: butt; stroke-dashoffset: 0; stroke-linejoin: miter; stroke-miterlimit: 4; fill: rgb(0,0,0); fill-rule: nonzero; opacity: 1;" vector-effect="non-scaling-stroke"  transform=" translate(-1171.8, -570)" d="M 1165 570 C 1162 565 1164 560 1169 560 C 1175 560 1180 565 1180 570 C 1180 576 1178 580 1176 580 C 1173 580 1168 576 1165 570 z" stroke-linecap="round" />
</g>
		<g transform="matrix(0.13 0 0 -0.13 -26.64 82.03)"  >
<path style="stroke: none; stroke-width: 1; stroke-dasharray: none; stroke-linecap: butt; stroke-dashoffset: 0; stroke-linejoin: miter; stroke-miterlimit: 4; fill: rgb(0,0,0); fill-rule: nonzero; opacity: 1;" vector-effect="non-scaling-stroke"  transform=" translate(-900.18, -464.75)" d="M 888 463 C 894 461 906 461 913 463 C 919 466 914 468 900 468 C 886 468 881 466 888 463 z" stroke-linecap="round" />
</g>
		<g transform="matrix(0.13 0 0 -0.13 -23.98 84.77)"  >
<path style="stroke: none; stroke-width: 1; stroke-dasharray: none; stroke-linecap: butt; stroke-dashoffset: 0; stroke-linejoin: miter; stroke-miterlimit: 4; fill: rgb(0,0,0); fill-rule: nonzero; opacity: 1;" vector-effect="non-scaling-stroke"  transform=" translate(-920.18, -444.25)" d="M 898 443 C 910 441 930 441 943 443 C 955 445 945 447 920 447 C 895 447 885 445 898 443 z" stroke-linecap="round" />
</g>
</g>
</g>
</svg>